<?xml version="1.0" standalone="no"?><!DOCTYPE svg PUBLIC "-//W3C//DTD SVG 1.1//EN" "http://www.w3.org/Graphics/SVG/1.1/DTD/svg11.dtd"><svg t="1743176116829" class="icon" viewBox="0 0 1024 1024" version="1.1" xmlns="http://www.w3.org/2000/svg" p-id="15768" xmlns:xlink="http://www.w3.org/1999/xlink" width="200" height="200"><path d="M918.579452 183.707358V839.183401q0 34.429131-20.094326 61.136239-20.136989 26.749771-53.456878 36.263645l-293.863512 84.216982q-5.802183 1.578535-12.414965 2.346471-6.612782 0.810599-12.457629 0.810599-16.937255 0-30.71744-4.479627-13.737522-4.52229-28.029664-12.457628L275.347721 898.485126q-10.580452-5.844846-16.681277-15.614699-6.100825-9.812516-6.100824-21.971502 0-18.51579 12.969585-31.485376 12.969586-13.012249 31.52804-13.012249h248.811265V211.779685l-186.864428 66.682443q-22.782101 7.978002-36.562286 28.072327-13.737522 20.136989-13.737522 43.943005v344.675277q0 21.160903-10.580451 38.908758-10.623115 17.747854-29.138906 27.773685l-88.397966 48.209316q-12.20165 6.31414-24.360637 6.314141-21.203566 0-36.007666-14.8041-14.846763-14.8041-14.846763-36.007666V280.040663q0-26.451129 14.078827-50.769102 13.993501-24.4033 37.287559-37.628865L472.323306 12.158987q10.580452-5.802183 22.782102-8.959254 12.158987-3.199733 24.317973-3.199733 9.04458 0 16.211983 1.322556 7.12474 1.322556 15.572035 3.96767l293.863512 81.017248q16.382635 4.735605 29.864178 14.036164 13.524206 9.257895 23.336722 22.184818 9.812516 13.012249 15.060078 28.584285 5.332889 15.657362 5.332889 32.594617zM850.873094 839.183401V183.707358q0-11.647029-6.868761-20.392968-6.911424-8.703275-18.003833-11.903008l-144.542621-39.676693q-16.937255-4.778268-33.874511-9.812516-16.937255-5.034247-33.87451-9.257895v839.652696l212.291642-60.88026q11.092409-3.15707 18.003833-11.945672 6.868761-8.703275 6.868761-20.350304z" p-id="15769"></path></svg>